<?xml version="1.0" encoding="UTF-8"?>
<!DOCTYPE svg PUBLIC "-//W3C//DTD SVG 1.1//EN" "http://www.w3.org/Graphics/SVG/1.1/DTD/svg11.dtd">
<svg version="1.1" xmlns="http://www.w3.org/2000/svg" xmlns:xlink="http://www.w3.org/1999/xlink" x="0" y="0" width="619" height="192" viewBox="0, 0, 619, 192">
  <defs>
    <radialGradient id="Gradient_1" gradientUnits="userSpaceOnUse" cx="77.978" cy="744.352" r="63.69" gradientTransform="matrix(1.222, 0, 0, 0.07, -17.452, 107.479)">
      <stop offset="1" stop-color="#000000" stop-opacity="0"/>
      <stop offset="1" stop-color="#000000"/>
    </radialGradient>
    <linearGradient id="Gradient_2" gradientUnits="userSpaceOnUse" x1="13.816" y1="57.446" x2="13.816" y2="156.912">
      <stop offset="1" stop-color="#888888"/>
      <stop offset="1" stop-color="#000000"/>
    </linearGradient>
    <linearGradient id="Gradient_3" gradientUnits="userSpaceOnUse" x1="13.816" y1="63.842" x2="13.816" y2="143.522">
      <stop offset="1" stop-color="#121212"/>
      <stop offset="1" stop-color="#000000"/>
    </linearGradient>
    <linearGradient id="Gradient_4" gradientUnits="userSpaceOnUse" x1="515.006" y1="-492.005" x2="515.006" y2="-445.719" gradientTransform="matrix(1.13, 0, 0, 0.533, -54.897, 392.564)">
      <stop offset="0" stop-color="#000000" stop-opacity="0"/>
      <stop offset="0.5" stop-color="#000000"/>
      <stop offset="1" stop-color="#000000" stop-opacity="0"/>
    </linearGradient>
    <radialGradient id="Gradient_5" gradientUnits="userSpaceOnUse" cx="572.568" cy="-469.135" r="22.326" gradientTransform="matrix(1.13, 0, 0, 0.533, -54.675, 392.564)">
      <stop offset="0" stop-color="#000000"/>
      <stop offset="1" stop-color="#000000" stop-opacity="0"/>
    </radialGradient>
    <radialGradient id="Gradient_6" gradientUnits="userSpaceOnUse" cx="243.087" cy="-469.135" r="22.326" gradientTransform="matrix(-1.13, 0, 0, 0.533, 761.525, 392.564)">
      <stop offset="0" stop-color="#000000"/>
      <stop offset="1" stop-color="#000000" stop-opacity="0"/>
    </radialGradient>
    <linearGradient id="Gradient_7" gradientUnits="userSpaceOnUse" x1="31.984" y1="-3.147" x2="37.431" y2="-0.772" gradientTransform="matrix(16.602, 0, 0, 12.963, -42.95, 160.032)">
      <stop offset="0" stop-color="#BABDB6"/>
      <stop offset="1" stop-color="#888A8E"/>
    </linearGradient>
    <radialGradient id="Gradient_8" gradientUnits="userSpaceOnUse" cx="19.789" cy="-14.636" r="3.99" gradientTransform="matrix(21.354, 10.133, -11.8, 15.161, -82.037, 96.815)">
      <stop offset="0" stop-color="#EEEEEC"/>
      <stop offset="1" stop-color="#D3D7CF"/>
    </radialGradient>
    <linearGradient id="Gradient_9" gradientUnits="userSpaceOnUse" x1="31.237" y1="-0.778" x2="34.596" y2="-0.778" gradientTransform="matrix(16.602, 0, 0, 12.963, -29.743, 142.846)">
      <stop offset="0" stop-color="#888A85"/>
      <stop offset="1" stop-color="#BABDB6" stop-opacity="0"/>
    </linearGradient>
    <linearGradient id="Gradient_10" gradientUnits="userSpaceOnUse" x1="32.875" y1="-1.484" x2="32.864" y2="-2.141" gradientTransform="matrix(16.602, 0, 0, 12.963, -42.95, 160.032)">
      <stop offset="0" stop-color="#EEEEEE"/>
      <stop offset="1" stop-color="#EEEEEE" stop-opacity="0"/>
    </linearGradient>
    <linearGradient id="Gradient_11" gradientUnits="userSpaceOnUse" x1="14.64" y1="-0.773" x2="15.208" y2="-0.773" gradientTransform="matrix(22.496, 0, 0, 17.748, 207.366, 147.21)">
      <stop offset="0" stop-color="#2E3436"/>
      <stop offset="1" stop-color="#2E3436" stop-opacity="0"/>
    </linearGradient>
    <linearGradient id="Gradient_12" gradientUnits="userSpaceOnUse" x1="-1.222" y1="-27.776" x2="-0.7" y2="-27.776" gradientTransform="matrix(7.845, 0, 0, 8.822, 605.985, 378.596)">
      <stop offset="0" stop-color="#73D216"/>
      <stop offset="0.256" stop-color="#8AE234"/>
      <stop offset="0.594" stop-color="#4E9A06"/>
      <stop offset="1" stop-color="#73D216"/>
    </linearGradient>
    <linearGradient id="Gradient_13" gradientUnits="userSpaceOnUse" x1="-1.222" y1="-30.129" x2="-0.7" y2="-30.129" gradientTransform="matrix(7.845, 0, 0, 8.822, 605.985, 404.243)">
      <stop offset="0" stop-color="#EEEEEC"/>
      <stop offset="0.5" stop-color="#CC0000"/>
      <stop offset="1" stop-color="#A40000"/>
    </linearGradient>
  </defs>
  <g id="Layer_1">
    <g>
      <path d="M252.316,79.682 L360.316,79.682 L360.316,135.682 L252.316,135.682 L252.316,79.682 z" fill="#FFFFFF"/>
      <path d="M252.316,79.682 L360.316,79.682 L360.316,135.682 L252.316,135.682 L252.316,79.682 z" fill-opacity="0" stroke="#000000" stroke-width="3"/>
    </g>
    <text transform="matrix(1, 0, 0, 1, 303.588, 107.182)">
      <tspan x="-35.772" y="8.5" font-family="HelveticaNeue-Bold" font-size="24" fill="#000000">ACME</tspan>
    </text>
    <path d="M139.597,107.682 L252.316,107.682" fill-opacity="0" stroke="#000000" stroke-width="3"/>
    <text transform="matrix(1, 0, 0, 1, 77.414, 34.651)">
      <tspan x="-33.312" y="8.5" font-family="HelveticaNeue-Bold" font-size="24" fill="#000000">Client</tspan>
    </text>
    <text transform="matrix(1, 0, 0, 1, 78.114, 176.635)">
      <tspan x="-63.996" y="8.5" font-family="HelveticaNeue-Bold" font-size="24" fill="#000000">letsencrypt</tspan>
    </text>
    <path d="M360.316,107.682 L473.034,107.682" fill-opacity="0" stroke="#000000" stroke-width="3"/>
    <text transform="matrix(1, 0, 0, 1, 539.54, 32.576)">
      <tspan x="-59.988" y="-9.576" font-family="HelveticaNeue-Bold" font-size="24" fill="#000000">Certificate </tspan>
      <tspan x="-52.224" y="19.424" font-family="HelveticaNeue-Bold" font-size="24" fill="#000000">Authority</tspan>
    </text>
    <text transform="matrix(1, 0, 0, 1, 303.588, 34.651)">
      <tspan x="-48.66" y="8.5" font-family="HelveticaNeue-Bold" font-size="24" fill="#000000">Protocol</tspan>
    </text>
    <text transform="matrix(1, 0, 0, 1, 539.539, 176.635)">
      <tspan x="-44.88" y="8.5" font-family="HelveticaNeue-Bold" font-size="24" fill="#000000">Boulder</tspan>
    </text>
  </g>
  <g id="Layer_1">
    <path d="M155.631,159.654 C155.631,162.119 120.792,164.118 77.816,164.118 C34.839,164.118 0,162.119 0,159.654 C0,157.188 34.839,155.189 77.816,155.189 C120.792,155.189 155.631,157.188 155.631,159.654 z" fill="url(#Gradient_1)" id="1" opacity="0.2"/>
    <path d="M22.972,55.151 C19.478,55.151 16.534,58.04 16.534,61.557 L16.534,152.807 C16.534,156.325 19.478,159.214 22.972,159.214 L132.659,159.214 C136.153,159.214 139.097,156.325 139.097,152.807 L139.097,61.557 C139.097,58.04 136.153,55.151 132.659,55.151 L22.972,55.151 z" fill="#555555" id="2"/>
    <path d="M22.956,57.446 L132.666,57.446 C134.93,57.446 136.766,59.282 136.766,61.546 L136.766,152.816 C136.766,155.081 134.93,156.916 132.666,156.916 L22.956,156.916 C20.691,156.916 18.856,155.081 18.856,152.816 L18.856,61.546 C18.856,59.282 20.691,57.446 22.956,57.446 z" fill="url(#Gradient_2)" id="3"/>
    <path d="M24.474,63.439 L130.354,63.439 L130.354,143.119 L24.474,143.119 z" fill="#000000" id="4"/>
    <path d="M25.174,64.139 L131.054,64.139 L131.054,143.819 L25.174,143.819 z" fill="#DDDDDD" id="5"/>
    <path d="M24.876,63.842 L130.756,63.842 L130.756,143.522 L24.876,143.522 z" fill="url(#Gradient_3)" id="6"/>
    <path d="M34.816,68.521 L34.816,69.865 C34.16,69.892 33.558,69.968 33.003,70.115 C32.454,70.262 31.967,70.483 31.566,70.771 C31.171,71.059 30.88,71.423 30.659,71.865 C30.438,72.3 30.316,72.818 30.316,73.427 C30.316,74.123 30.45,74.709 30.691,75.177 C30.931,75.639 31.24,76.026 31.628,76.333 C32.023,76.635 32.47,76.872 32.972,77.052 C33.474,77.226 33.981,77.369 34.503,77.49 C34.53,77.49 34.579,77.501 34.659,77.521 C34.74,77.534 34.795,77.539 34.816,77.552 L34.816,81.49 C34.407,81.45 34.065,81.36 33.784,81.24 C33.51,81.113 33.277,80.965 33.097,80.771 C32.916,80.577 32.766,80.344 32.659,80.083 C32.559,79.816 32.494,79.53 32.441,79.208 L29.878,79.677 C29.998,80.286 30.168,80.827 30.409,81.302 C30.657,81.771 30.983,82.162 31.378,82.49 C31.78,82.818 32.253,83.059 32.816,83.24 C33.384,83.42 34.053,83.525 34.816,83.552 L34.816,85.302 L35.909,85.302 L35.909,83.521 C36.752,83.488 37.488,83.403 38.097,83.208 C38.706,83.008 39.209,82.731 39.597,82.396 C39.992,82.055 40.284,81.639 40.472,81.177 C40.659,80.709 40.753,80.215 40.753,79.646 C40.753,78.903 40.614,78.284 40.347,77.802 C40.086,77.314 39.719,76.923 39.284,76.615 C38.856,76.307 38.371,76.045 37.816,75.865 C37.267,75.684 36.703,75.53 36.128,75.396 C36.088,75.383 36.043,75.365 36.003,75.365 C35.97,75.365 35.943,75.378 35.909,75.365 L35.909,71.833 C36.445,71.907 36.872,72.106 37.159,72.427 C37.454,72.742 37.653,73.189 37.753,73.771 L40.378,73.365 C40.237,72.803 40.061,72.318 39.847,71.896 C39.633,71.468 39.351,71.121 39.003,70.833 C38.655,70.539 38.255,70.307 37.753,70.146 C37.251,69.985 36.625,69.892 35.909,69.865 L35.909,68.521 L34.816,68.521 z M48.534,68.521 L48.534,85.302 L59.222,85.302 L59.222,68.521 L48.534,68.521 z M34.816,71.771 L34.816,75.115 C34.548,75.028 34.293,74.945 34.066,74.865 C33.838,74.778 33.639,74.673 33.472,74.552 C33.304,74.432 33.19,74.295 33.097,74.115 C33.003,73.927 32.941,73.684 32.941,73.396 C32.941,73.195 32.974,72.983 33.034,72.802 C33.094,72.615 33.2,72.474 33.347,72.333 C33.494,72.186 33.675,72.052 33.909,71.958 C34.15,71.865 34.461,71.798 34.816,71.771 z M35.909,77.802 C36.217,77.889 36.517,77.965 36.784,78.052 C37.059,78.133 37.271,78.238 37.472,78.365 C37.673,78.492 37.858,78.657 37.972,78.865 C38.086,79.065 38.128,79.349 38.128,79.677 C38.128,80.266 37.922,80.702 37.534,80.99 C37.153,81.277 36.619,81.443 35.909,81.49 L35.909,77.802 z" fill="#EEEEEE" id="7"/>
    <path d="M34.816,68.521 L34.816,69.865 C34.16,69.892 33.558,69.968 33.003,70.115 C32.454,70.262 31.967,70.483 31.566,70.771 C31.171,71.059 30.88,71.423 30.659,71.865 C30.438,72.3 30.316,72.818 30.316,73.427 C30.316,74.123 30.45,74.709 30.691,75.177 C30.931,75.639 31.24,76.026 31.628,76.333 C32.023,76.635 32.47,76.872 32.972,77.052 C33.474,77.226 33.981,77.369 34.503,77.49 C34.53,77.49 34.579,77.501 34.659,77.521 C34.74,77.534 34.795,77.539 34.816,77.552 L34.816,81.49 C34.407,81.45 34.065,81.36 33.784,81.24 C33.51,81.113 33.277,80.965 33.097,80.771 C32.916,80.577 32.766,80.344 32.659,80.083 C32.559,79.816 32.494,79.53 32.441,79.208 L29.878,79.677 C29.998,80.286 30.168,80.827 30.409,81.302 C30.657,81.771 30.983,82.162 31.378,82.49 C31.78,82.818 32.253,83.059 32.816,83.24 C33.384,83.42 34.053,83.525 34.816,83.552 L34.816,85.302 L35.909,85.302 L35.909,83.521 C36.752,83.488 37.488,83.403 38.097,83.208 C38.706,83.008 39.209,82.731 39.597,82.396 C39.992,82.055 40.284,81.639 40.472,81.177 C40.659,80.709 40.753,80.215 40.753,79.646 C40.753,78.903 40.614,78.284 40.347,77.802 C40.086,77.314 39.719,76.923 39.284,76.615 C38.856,76.307 38.371,76.045 37.816,75.865 C37.267,75.684 36.703,75.53 36.128,75.396 C36.088,75.383 36.043,75.365 36.003,75.365 C35.97,75.365 35.943,75.378 35.909,75.365 L35.909,71.833 C36.445,71.907 36.872,72.106 37.159,72.427 C37.454,72.742 37.653,73.189 37.753,73.771 L40.378,73.365 C40.237,72.803 40.061,72.318 39.847,71.896 C39.633,71.468 39.351,71.121 39.003,70.833 C38.655,70.539 38.255,70.307 37.753,70.146 C37.251,69.985 36.625,69.892 35.909,69.865 L35.909,68.521 L34.816,68.521 z M48.534,68.521 L48.534,85.302 L59.222,85.302 L59.222,68.521 L48.534,68.521 z M34.816,71.771 L34.816,75.115 C34.548,75.028 34.293,74.945 34.066,74.865 C33.838,74.778 33.639,74.673 33.472,74.552 C33.304,74.432 33.19,74.295 33.097,74.115 C33.003,73.927 32.941,73.684 32.941,73.396 C32.941,73.195 32.974,72.983 33.034,72.802 C33.094,72.615 33.2,72.474 33.347,72.333 C33.494,72.186 33.675,72.052 33.909,71.958 C34.15,71.865 34.461,71.798 34.816,71.771 z M35.909,77.802 C36.217,77.889 36.517,77.965 36.784,78.052 C37.059,78.133 37.271,78.238 37.472,78.365 C37.673,78.492 37.858,78.657 37.972,78.865 C38.086,79.065 38.128,79.349 38.128,79.677 C38.128,80.266 37.922,80.702 37.534,80.99 C37.153,81.277 36.619,81.443 35.909,81.49 L35.909,77.802 z" fill="#EEEEEE" id="8"/>
  </g>
  <g id="Server">
    <g id="g12756">
      <path d="M487.556,130.421 L591.523,130.421 L591.523,155.082 L487.556,155.082 z" fill="url(#Gradient_4)" id="rect6709" opacity="0.402"/>
      <path d="M591.523,130.422 C591.523,130.422 591.523,155.082 591.523,155.082 C602.611,155.128 618.329,149.556 618.329,142.75 C618.329,135.943 605.955,130.422 591.523,130.422 z" fill="url(#Gradient_5)" id="path6711" opacity="0.402"/>
      <path d="M487.556,130.422 C487.556,130.422 487.556,155.082 487.556,155.082 C476.468,155.128 460.75,149.556 460.75,142.75 C460.75,135.943 473.124,130.422 487.556,130.422 z" fill="url(#Gradient_6)" id="path6713" opacity="0.402"/>
      <path d="M503.845,75.643 C502.052,75.643 500.886,76.258 500.169,77.43 C500.169,77.43 481.609,113.654 481.609,113.654 C481.609,113.654 480.892,115.076 480.892,117.426 C480.892,117.426 480.892,137.864 480.892,137.864 C480.892,140.157 482.779,141.306 485.644,141.306 L596.285,141.306 C599.111,141.306 600.858,139.785 600.858,137.401 L600.858,116.963 C600.858,116.963 601.162,115.331 600.589,114.183 L581.312,77.761 C580.782,76.677 579.484,75.668 578.084,75.643 L503.845,75.643 z" fill-opacity="0" stroke="#555753" stroke-width="29.34" stroke-linecap="round" stroke-linejoin="round" id="path4196"/>
      <path d="M474.353,115.568 L476.773,113.858 L595.776,114.012 L606.731,114.796 L606.731,140.585 C606.731,143.365 604.811,145.139 601.694,145.139 L479.612,145.139 C476.452,145.139 474.353,143.799 474.353,141.125 L474.353,115.568 z" fill="url(#Gradient_7)" id="path4170"/>
      <path d="M475.225,112.894 C472.965,116.511 475.223,118.805 478.502,118.805 C478.502,118.805 601.904,118.805 601.904,118.805 C605.445,118.746 607.743,116.305 606.425,113.511 L585.18,70.992 C584.596,69.727 583.108,68.55 581.563,68.521 L499.747,68.521 C497.77,68.521 496.47,69.271 495.679,70.639 C495.679,70.639 475.225,112.894 475.225,112.894 z" fill="url(#Gradient_8)" id="path3093"/>
      <path d="M488.859,125.888 L544.627,125.888 L544.627,139.631 L488.859,139.631 z" fill="url(#Gradient_9)" id="rect4174"/>
      <path d="M488.859,139.63 C488.859,139.63 488.859,129.72 488.859,129.72 C494.667,137.574 515.11,139.63 529.795,139.63 C529.795,139.63 488.859,139.63 488.859,139.63 z" fill="url(#Gradient_10)" id="path4194" opacity="0.811"/>
      <path d="M605.737,112.188 C605.938,115.276 604.427,117.909 601.554,117.978 C601.554,117.978 480.94,117.978 480.94,117.978 C476.861,117.978 475.03,117.175 474.346,115.833 C474.636,118.166 476.959,119.908 480.94,119.908 C480.94,119.908 601.554,119.908 601.554,119.908 C604.959,119.826 607.1,116.39 605.832,112.509 L605.737,112.188 z" fill="#FFFFFF" id="path4201"/>
      <path d="M549.187,132.51 C549.187,134.793 545.733,136.643 541.471,136.643 C537.209,136.643 533.754,134.793 533.754,132.51 C533.754,130.227 537.209,128.376 541.471,128.376 C545.733,128.376 549.187,130.227 549.187,132.51 z" fill="#FFFFFF" fill-opacity="0.458" id="path4224"/>
      <path d="M501.334,70.162 C499.43,70.162 498.193,70.853 497.431,72.169 C497.431,72.169 477.133,113.157 477.133,113.157 C477.133,113.157 476.371,114.754 476.371,117.394 C476.371,117.394 476.371,140.345 476.371,140.345 C476.371,143.692 477.776,144.365 481.417,144.365 L600.664,144.365 C604.85,144.365 605.519,143.583 605.519,139.825 L605.519,116.873 C605.519,116.873 605.841,115.041 605.233,113.752 L584.371,72.232 C583.809,71.015 582.629,70.191 581.142,70.162 L501.334,70.162 z" fill-opacity="0" stroke="#FFFFFF" stroke-width="14.67" stroke-opacity="0.5" stroke-linecap="round" stroke-linejoin="round" id="path4252"/>
      <path d="M592.644,127.018 L592.644,139.422" fill-opacity="0" stroke="#FFFFFF" stroke-width="14.67" stroke-opacity="0.424" stroke-linecap="square" id="path4282"/>
      <path d="M586.315,127.166 L586.315,139.57" fill-opacity="0" stroke="#FFFFFF" stroke-width="14.67" stroke-opacity="0.424" stroke-linecap="square" id="path4284"/>
      <path d="M579.987,127.166 L579.987,139.57" fill-opacity="0" stroke="#FFFFFF" stroke-width="14.67" stroke-opacity="0.424" stroke-linecap="square" id="path4286"/>
      <path d="M573.659,127.166 L573.659,139.57" fill-opacity="0" stroke="#FFFFFF" stroke-width="14.67" stroke-opacity="0.424" stroke-linecap="square" id="path4288"/>
      <path d="M567.33,127.166 L567.33,139.57" fill-opacity="0" stroke="#FFFFFF" stroke-width="14.67" stroke-opacity="0.424" stroke-linecap="square" id="path4290"/>
      <path d="M561.002,127.166 L561.002,139.57" fill-opacity="0" stroke="#FFFFFF" stroke-width="14.67" stroke-opacity="0.424" stroke-linecap="square" id="path4292"/>
      <path d="M589.479,127.141 L589.479,139.546" fill-opacity="0" stroke="#000000" stroke-width="14.67" stroke-linecap="square" id="path4294" opacity="0.097"/>
      <path d="M583.151,127.289 L583.151,139.693" fill-opacity="0" stroke="#000000" stroke-width="14.67" stroke-linecap="square" id="path4296" opacity="0.097"/>
      <path d="M576.823,127.289 L576.823,139.693" fill-opacity="0" stroke="#000000" stroke-width="14.67" stroke-linecap="square" id="path4298" opacity="0.097"/>
      <path d="M570.494,127.289 L570.494,139.693" fill-opacity="0" stroke="#000000" stroke-width="14.67" stroke-linecap="square" id="path4300" opacity="0.097"/>
      <path d="M564.166,127.289 L564.166,139.693" fill-opacity="0" stroke="#000000" stroke-width="14.67" stroke-linecap="square" id="path4302" opacity="0.097"/>
      <path d="M488.913,125.921 L488.913,139.586 L528.663,139.586 L490.001,138.737 L488.913,125.921 z" fill="#FFFFFF" id="path4572" opacity="0.44"/>
      <path d="M546.843,133.254 C546.843,135.114 544.399,136.621 541.383,136.621 C538.368,136.621 535.924,135.114 535.924,133.254 C535.924,131.394 538.368,129.887 541.383,129.887 C544.399,129.887 546.843,131.394 546.843,133.254 z" fill="#FFFFFF" fill-opacity="0.458" id="path2229"/>
      <g id="path4212">
        <path d="M548.961,133.499 C548.961,135.397 546.331,136.937 543.087,136.937 C539.843,136.937 537.214,135.397 537.214,133.499 C537.214,131.6 539.843,130.06 543.087,130.06 C546.331,130.06 548.961,131.6 548.961,133.499 z" fill="url(#Gradient_11)"/>
        <path d="M548.961,133.499 C548.961,135.397 546.331,136.937 543.087,136.937 C539.843,136.937 537.214,135.397 537.214,133.499 C537.214,131.6 539.843,130.06 543.087,130.06 C546.331,130.06 548.961,131.6 548.961,133.499 z" fill-opacity="0" stroke="#2E3436" stroke-width="5.426" stroke-opacity="0.5" stroke-linecap="round" stroke-linejoin="round"/>
      </g>
      <path d="M600.493,133.558 C600.493,134.502 599.576,135.267 598.444,135.267 C597.313,135.267 596.396,134.502 596.396,133.558 C596.396,132.614 597.313,131.849 598.444,131.849 C599.576,131.849 600.493,132.614 600.493,133.558 z" fill="url(#Gradient_12)" id="path22448"/>
      <path d="M599.859,133.729 C599.859,134.596 599.076,135.299 598.112,135.299 C597.147,135.299 596.365,134.596 596.365,133.729 C596.365,132.862 597.147,132.159 598.112,132.159 C599.076,132.159 599.859,132.862 599.859,133.729 z" fill="#73D216" fill-opacity="0.459" id="path22450"/>
      <path d="M600.493,138.446 C600.493,139.39 599.576,140.155 598.444,140.155 C597.313,140.155 596.396,139.39 596.396,138.446 C596.396,137.502 597.313,136.737 598.444,136.737 C599.576,136.737 600.493,137.502 600.493,138.446 z" fill="url(#Gradient_13)" id="path8888"/>
      <path d="M599.859,138.617 C599.859,139.484 599.076,140.187 598.112,140.187 C597.147,140.187 596.365,139.484 596.365,138.617 C596.365,137.75 597.147,137.047 598.112,137.047 C599.076,137.047 599.859,137.75 599.859,138.617 z" fill="#CC0000" fill-opacity="0.459" id="path8890"/>
    </g>
  </g>
</svg>
