<?xml version="1.0" encoding="UTF-8" standalone="no"?>
<!--part of the matt icon theme by sixsixfive released under CC0 (https://creativecommons.org/publicdomain/zero/1.0/) on openclipart-->
<svg xmlns="http://www.w3.org/2000/svg" xmlns:xlink="http://www.w3.org/1999/xlink" viewBox="0 0 128 128">
 <defs id="0">
  <linearGradient id="B">
   <stop id="R" stop-color="#323232"/>
   <stop id="S" offset="1" stop-color="#121212"/>
  </linearGradient>
  <linearGradient id="C">
   <stop id="T"/>
   <stop id="U" offset="1" stop-opacity="0"/>
  </linearGradient>
  <linearGradient id="D">
   <stop id="V" stop-color="#bbb"/>
   <stop id="W" offset="1" stop-color="#888"/>
  </linearGradient>
  <linearGradient id="E">
   <stop id="X" stop-color="#fff"/>
   <stop id="Y" offset="1" stop-color="#fff" stop-opacity="0"/>
  </linearGradient>
  <filter color-interpolation-filters="sRGB" id="F">
   <feGaussianBlur stdDeviation="0.34594" id="Z"/>
  </filter>
  <linearGradient y1="20.16" x2="0" y2="99.84" id="G" xlink:href="#B" gradientUnits="userSpaceOnUse"/>
  <linearGradient y1="13.764" x2="0" y2="113.23" id="H" xlink:href="#D" gradientUnits="userSpaceOnUse"/>
  <radialGradient cx="62.27" cy="-11.583" r="58.8" id="I" xlink:href="#E" gradientUnits="userSpaceOnUse" gradientTransform="matrix(1.5662421,-0.00622244,0.0033489,0.84294616,-33.49716,10.338585)"/>
  <radialGradient cx="66.67" cy="121.15" r="63.69" id="J" xlink:href="#C" gradientUnits="userSpaceOnUse" gradientTransform="matrix(1,0,0,0.07009346,0,112.66261)"/>
  <linearGradient id="K">
   <stop id="a" stop-color="#323232"/>
   <stop id="b" offset="1" stop-color="#555"/>
  </linearGradient>
  <linearGradient id="L">
   <stop id="c" stop-color="#eee" stop-opacity="0.308"/>
   <stop id="d" offset="1" stop-color="#eee" stop-opacity="0"/>
  </linearGradient>
  <linearGradient y1="114.03" x2="0" y2="9.531" id="M" xlink:href="#K" gradientUnits="userSpaceOnUse"/>
  <radialGradient cx="65.21" cy="-5.131" r="50.703" id="N" xlink:href="#L" gradientUnits="userSpaceOnUse" gradientTransform="matrix(1.348279,0,0,1.0502311,-24.469781,-3.1033417)"/>
 </defs>
 <path d="m 130.35714,121.15476 a 63.690475,4.4642859 0 1 1 -127.3809513,0 63.690475,4.4642859 0 1 1 127.3809513,0 z" transform="matrix(1.221777,0,0,1,-17.451797,-5.1835166)" id="1" opacity="0.2" fill="url(#J)"/>
 <path d="m 9.15625,11.46875 c -3.4935055,0 -6.4375,2.888738 -6.4375,6.40625 l 0,91.25 c 0,3.51751 2.9439955,6.40625 6.4375,6.40625 l 109.6875,0 c 3.49351,0 6.4375,-2.88874 6.4375,-6.40625 l 0,-91.25 c 0,-3.517506 -2.94399,-6.40625 -6.4375,-6.40625 l -109.6875,0 z" id="2" fill="#555"/>
 <rect width="117.91" height="99.47" x="5.04" y="13.764" id="3" fill="url(#H)" rx="4.1"/>
 <rect width="105.88" height="79.68" x="10.658" y="19.757" id="4"/>
 <rect width="105.88" height="79.68" x="11.358" y="20.457" id="5" fill="#ddd"/>
 <rect width="105.88" height="79.68" x="11.06" y="20.16" id="6" fill="url(#G)"/>
 <path d="m 20.999962,24.838626 0,1.34375 c -0.655763,0.02678 -1.257116,0.102804 -1.8125,0.25 -0.548698,0.147225 -1.036018,0.368533 -1.4375,0.65625 -0.394795,0.287744 -0.685435,0.652129 -0.90625,1.09375 -0.220817,0.434953 -0.34375,0.953594 -0.34375,1.5625 0,0.695918 0.134109,1.28161 0.375,1.75 0.24089,0.461716 0.549397,0.848453 0.9375,1.15625 0.394791,0.301121 0.841891,0.538089 1.34375,0.71875 0.501852,0.173984 1.009315,0.317061 1.53125,0.4375 0.02676,1e-5 0.07595,0.01118 0.15625,0.03125 0.0803,0.01339 0.13617,0.01787 0.15625,0.03125 l 0,3.937501 c -0.408181,-0.04015 -0.750216,-0.129552 -1.03125,-0.25 -0.274352,-0.127134 -0.506836,-0.274698 -0.6875,-0.46875 -0.180672,-0.194048 -0.330441,-0.426532 -0.4375,-0.6875 -0.100375,-0.267654 -0.16522,-0.553809 -0.21875,-0.875 l -2.5625,0.46875 c 0.120445,0.608922 0.290359,1.149913 0.53125,1.625 0.247581,0.468401 0.573955,0.859622 0.96875,1.1875 0.401482,0.32788 0.875419,0.569332 1.4375,0.75 0.568766,0.180667 1.237174,0.285739 2,0.3125 l 0,1.75 1.09375,0 0,-1.78125 c 0.843111,-0.03346 1.578573,-0.118449 2.1875,-0.3125 0.608909,-0.200742 1.111889,-0.47793 1.5,-0.8125 0.394783,-0.341262 0.68763,-0.757041 0.875,-1.21875 0.187349,-0.468396 0.281239,-0.962476 0.28125,-1.53125 -1.1e-5,-0.742741 -0.138605,-1.361964 -0.40625,-1.84375 -0.260976,-0.488467 -0.627569,-0.879688 -1.0625,-1.1875 -0.42826,-0.307797 -0.913371,-0.569325 -1.46875,-0.75 -0.548703,-0.180661 -1.112046,-0.334913 -1.6875,-0.46875 -0.04016,-0.01337 -0.08486,-0.03124 -0.125,-0.03125 -0.03346,10e-6 -0.0603,0.01339 -0.09375,0 l 0,-3.53125 c 0.535306,0.07362 0.962262,0.272573 1.25,0.59375 0.294414,0.314507 0.49337,0.761608 0.59375,1.34375 l 2.625,-0.40625 c -0.14053,-0.562068 -0.317135,-1.047179 -0.53125,-1.46875 -0.214135,-0.428238 -0.495806,-0.774757 -0.84375,-1.0625 -0.347962,-0.294409 -0.748153,-0.526893 -1.25,-0.6875 -0.501864,-0.16058 -1.127776,-0.25447 -1.84375,-0.28125 l 0,-1.34375 -1.09375,0 z m 13.71875,0 0,16.781251 10.6875,0 0,-16.78125 -10.6875,0 z m -13.71875,3.25 0,3.34375 c -0.267662,-0.08698 -0.522497,-0.16969 -0.75,-0.25 -0.227512,-0.08698 -0.426469,-0.192045 -0.59375,-0.3125 -0.167289,-0.120436 -0.28132,-0.256822 -0.375,-0.4375 -0.09368,-0.187349 -0.156254,-0.431009 -0.15625,-0.71875 -10e-6,-0.200731 0.03352,-0.41307 0.09375,-0.59375 0.06022,-0.187348 0.165285,-0.328219 0.3125,-0.46875 0.147207,-0.147199 0.328297,-0.28131 0.5625,-0.375 0.240886,-0.09367 0.5516,-0.16072 0.90625,-0.1875 z m 1.09375,6.03125 c 0.307799,0.08699 0.607337,0.16302 0.875,0.25 0.274341,0.0803 0.48675,0.185369 0.6875,0.3125 0.200734,0.127142 0.386238,0.292571 0.5,0.5 0.113741,0.200747 0.156242,0.484625 0.15625,0.8125 -8e-6,0.588849 -0.205656,1.024773 -0.59375,1.312501 -0.381418,0.287733 -0.915717,0.453159 -1.625,0.5 l 0,-3.6875 z" id="7" fill="#eee"/>
 <path d="m 20.999962,24.838626 0,1.34375 c -0.655763,0.02678 -1.257116,0.102804 -1.8125,0.25 -0.548698,0.147225 -1.036018,0.368533 -1.4375,0.65625 -0.394795,0.287744 -0.685435,0.652129 -0.90625,1.09375 -0.220817,0.434953 -0.34375,0.953594 -0.34375,1.5625 0,0.695918 0.134109,1.28161 0.375,1.75 0.24089,0.461716 0.549397,0.848453 0.9375,1.15625 0.394791,0.301121 0.841891,0.538089 1.34375,0.71875 0.501852,0.173984 1.009315,0.317061 1.53125,0.4375 0.02676,1e-5 0.07595,0.01118 0.15625,0.03125 0.0803,0.01339 0.13617,0.01787 0.15625,0.03125 l 0,3.937501 c -0.408181,-0.04015 -0.750216,-0.129552 -1.03125,-0.25 -0.274352,-0.127134 -0.506836,-0.274698 -0.6875,-0.46875 -0.180672,-0.194048 -0.330441,-0.426532 -0.4375,-0.6875 -0.100375,-0.267654 -0.16522,-0.553809 -0.21875,-0.875 l -2.5625,0.46875 c 0.120445,0.608922 0.290359,1.149913 0.53125,1.625 0.247581,0.468401 0.573955,0.859622 0.96875,1.1875 0.401482,0.32788 0.875419,0.569332 1.4375,0.75 0.568766,0.180667 1.237174,0.285739 2,0.3125 l 0,1.75 1.09375,0 0,-1.78125 c 0.843111,-0.03346 1.578573,-0.118449 2.1875,-0.3125 0.608909,-0.200742 1.111889,-0.47793 1.5,-0.8125 0.394783,-0.341262 0.68763,-0.757041 0.875,-1.21875 0.187349,-0.468396 0.281239,-0.962476 0.28125,-1.53125 -1.1e-5,-0.742741 -0.138605,-1.361964 -0.40625,-1.84375 -0.260976,-0.488467 -0.627569,-0.879688 -1.0625,-1.1875 -0.42826,-0.307797 -0.913371,-0.569325 -1.46875,-0.75 -0.548703,-0.180661 -1.112046,-0.334913 -1.6875,-0.46875 -0.04016,-0.01337 -0.08486,-0.03124 -0.125,-0.03125 -0.03346,10e-6 -0.0603,0.01339 -0.09375,0 l 0,-3.53125 c 0.535306,0.07362 0.962262,0.272573 1.25,0.59375 0.294414,0.314507 0.49337,0.761608 0.59375,1.34375 l 2.625,-0.40625 c -0.14053,-0.562068 -0.317135,-1.047179 -0.53125,-1.46875 -0.214135,-0.428238 -0.495806,-0.774757 -0.84375,-1.0625 -0.347962,-0.294409 -0.748153,-0.526893 -1.25,-0.6875 -0.501864,-0.16058 -1.127776,-0.25447 -1.84375,-0.28125 l 0,-1.34375 -1.09375,0 z m 13.71875,0 0,16.781251 10.6875,0 0,-16.78125 -10.6875,0 z m -13.71875,3.25 0,3.34375 c -0.267662,-0.08698 -0.522497,-0.16969 -0.75,-0.25 -0.227512,-0.08698 -0.426469,-0.192045 -0.59375,-0.3125 -0.167289,-0.120436 -0.28132,-0.256822 -0.375,-0.4375 -0.09368,-0.187349 -0.156254,-0.431009 -0.15625,-0.71875 -10e-6,-0.200731 0.03352,-0.41307 0.09375,-0.59375 0.06022,-0.187348 0.165285,-0.328219 0.3125,-0.46875 0.147207,-0.147199 0.328297,-0.28131 0.5625,-0.375 0.240886,-0.09367 0.5516,-0.16072 0.90625,-0.1875 z m 1.09375,6.03125 c 0.307799,0.08699 0.607337,0.16302 0.875,0.25 0.274341,0.0803 0.48675,0.185369 0.6875,0.3125 0.200734,0.127142 0.386238,0.292571 0.5,0.5 0.113741,0.200747 0.156242,0.484625 0.15625,0.8125 -8e-6,0.588849 -0.205656,1.024773 -0.59375,1.312501 -0.381418,0.287733 -0.915717,0.453159 -1.625,0.5 l 0,-3.6875 z" id="8" fill="#eee" filter="url(#F)"/>
 <path d="M 9.15625,15.21875 C 7.6810629,15.21875 6.5,16.399813 6.5,17.875 l 0,91.25 c 0,1.47519 1.1676395,2.625 2.65625,2.625 l 109.6875,0 c 1.48861,0 2.65625,-1.14981 2.65625,-2.625 l 0,-91.25 c 0,-1.475187 -1.18106,-2.65625 -2.65625,-2.65625 l -109.6875,0 z" id="9" fill="none" stroke="url(#I)" stroke-width="2.6"/>
 <g transform="matrix(0.1014181,0,0,0.1014181,57.550443,100.35598)" id="A">
  <path d="m 108.21875,7.28125 -50.9375,64.28125 33.28125,44.53125 26.84375,0 -41.25,-56.0625 L 116.46875,9 l 1.4375,-1.65625 -5,-0.0625 -4.6875,0 z m -98.9375,0.25 0,0.03125 L 50.71875,63.5 9.4375,116.1875 18.84375,116.28125 69.3125,52.75 36.09375,7.59375 9.28125,7.53125 z" id="O" fill="#1a1a1a"/>
  <path d="M 109.34375,9.53125 60.125,71.625 l 31.5625,42.21875 21.25,0 L 74.34375,61.375 a 2.2551453,2.2551453 0 0 1 0.03125,-2.75 l 38.78125,-49.09375 -0.25,0 -0.0312,0 -3.53125,0 z m -95.59375,0.25 38.78125,52.375 a 2.2551453,2.2551453 0 0 1 -0.03125,2.75 l -38.4375,49.0625 3.71875,0.0625 48.6875,-61.3125 L 34.9375,9.84375 13.75,9.78125 z" id="P" fill="url(#M)"/>
  <path d="M 109.34375,9.53125 60.125,71.625 l 31.5625,42.21875 21.25,0 L 74.34375,61.375 a 2.2551453,2.2551453 0 0 1 0.03125,-2.75 l 38.78125,-49.09375 -0.25,0 -0.0312,0 -3.53125,0 z m -95.59375,0.25 38.78125,52.375 a 2.2551453,2.2551453 0 0 1 -0.03125,2.75 l -38.4375,49.0625 3.71875,0.0625 48.6875,-61.3125 L 34.9375,9.84375 13.75,9.78125 z" id="Q" fill="none" stroke="url(#N)" stroke-linecap="square" stroke-width="2"/>
 </g>
</svg>
